<svg width="101" height="100" viewBox="0 0 101 100" fill="none" xmlns="http://www.w3.org/2000/svg">
<g opacity="0.5">
<path d="M41.4392 88.1227L39.7856 93.7407L39.0706 93.5302L39.2751 92.8356L39.1219 92.7905L39.3004 92.5989C39.2082 92.9121 39.0533 93.1366 38.8357 93.2724C38.6114 93.4061 38.3528 93.4299 38.06 93.3437C37.7535 93.2535 37.5473 93.0744 37.4412 92.8064C37.3282 92.5364 37.3265 92.2029 37.4359 91.8059L37.5182 92.3185L37.1811 92.2193L37.3902 92.0367C37.298 92.3499 37.1398 92.5734 36.9154 92.7072C36.691 92.8409 36.4325 92.8647 36.1396 92.7785C35.7923 92.6763 35.5614 92.4677 35.4469 92.1529C35.3256 91.836 35.3281 91.463 35.4544 91.034L36.7201 86.7337L37.476 86.9562L36.2102 91.2565C36.1381 91.5016 36.1364 91.7083 36.2053 91.8766C36.2722 92.0517 36.4043 92.1683 36.6018 92.2264C36.7993 92.2845 36.977 92.2591 37.1348 92.1502C37.2907 92.0481 37.4047 91.8744 37.4768 91.6293L38.7426 87.329L39.4167 87.5274L38.151 91.8277C38.0768 92.0797 38.0776 92.2908 38.1533 92.461C38.2222 92.6293 38.3553 92.7425 38.5528 92.8006C38.7503 92.8588 38.9235 92.8358 39.0726 92.7316C39.2216 92.6275 39.3366 92.4505 39.4176 92.2005L40.6833 87.9002L41.4392 88.1227Z" fill="white"/>
<path d="M32.0914 84.6795L29.1079 89.7188L28.3841 89.2903L28.9374 88.3557L28.7541 88.2472L29.113 88.1009C28.8743 88.504 28.5659 88.7463 28.1878 88.8276C27.7999 88.9115 27.3922 88.8268 26.9646 88.5737C26.4637 88.2771 26.1577 87.8815 26.0464 87.3866C25.9315 86.8979 26.0332 86.3848 26.3515 85.8472L28.3531 82.4663L29.0769 82.8948L27.1241 86.1933C26.8963 86.5781 26.8217 86.9341 26.9003 87.2611C26.9789 87.5881 27.1923 87.8547 27.5405 88.0608C27.9009 88.2742 28.25 88.3324 28.5879 88.2354C28.9257 88.1385 29.214 87.8885 29.4527 87.4853L31.3675 84.251L32.0914 84.6795Z" fill="white"/>
<path d="M25.4847 77.8379L20.0025 83.3482L19.4062 82.755L20.1347 82.0228L19.9761 81.8651L20.4051 81.7962C20.0797 82.1233 19.7187 82.2748 19.3221 82.2507C18.9155 82.2267 18.536 82.0394 18.1838 81.689C17.7661 81.2734 17.5716 80.8046 17.6004 80.2825C17.6191 79.7604 17.8638 79.2629 18.3344 78.7898L19.5585 77.5594C19.8739 77.2424 20.2047 77.0257 20.5507 76.9094C20.8917 76.7981 21.228 76.7822 21.5595 76.8616C21.8859 76.9361 22.1876 77.111 22.4643 77.3863C22.8116 77.7318 22.9982 78.1078 23.0244 78.5143C23.0505 78.9208 22.9034 79.2851 22.583 79.6071L22.6723 79.2003L22.8157 79.343L23.6492 78.4901L24.8884 77.2446L25.4847 77.8379ZM22.1349 78.0949C21.8329 77.7945 21.5088 77.6523 21.1625 77.6683C20.8112 77.6792 20.4703 77.8507 20.1399 78.1829L18.9683 79.3604C18.6329 79.6976 18.4631 80.0394 18.459 80.3857C18.4448 80.7321 18.5887 81.0555 18.8906 81.3559C19.1825 81.6462 19.5091 81.7859 19.8705 81.775C20.2218 81.764 20.5602 81.595 20.8856 81.2679L22.0572 80.0904C22.3826 79.7633 22.5524 79.4215 22.5665 79.0651C22.5706 78.7087 22.4267 78.3853 22.1349 78.0949Z" fill="white"/>
<path d="M17.9849 72.2915L14.3329 72.0587L12.8952 75.1911L12.3864 74.3416L13.3777 72.3081C13.4167 72.2351 13.4648 72.1566 13.5221 72.0727C13.5696 71.9863 13.6074 71.9181 13.6355 71.8682C13.5782 71.8694 13.5021 71.8736 13.4072 71.8808C13.3025 71.8856 13.2087 71.888 13.126 71.8879L10.8653 71.8022L10.362 70.9619L13.8113 71.1671L15.3258 67.8521L15.8346 68.7016L14.7958 70.8629C14.7604 70.942 14.7129 71.0284 14.6531 71.1221C14.5898 71.2097 14.5428 71.2833 14.5124 71.343C14.5757 71.3381 14.6645 71.3346 14.779 71.3322C14.8934 71.3299 14.9939 71.3318 15.0803 71.3379L17.4815 71.4511L17.9849 72.2915Z" fill="white"/>
<path d="M8.47294 51.8443C8.48823 52.1989 8.39084 52.4944 8.18077 52.7308C7.96331 52.9604 7.67728 53.0829 7.32268 53.0982C6.96809 53.1135 6.67612 53.0159 6.44679 52.8056C6.21006 52.5884 6.08405 52.3025 6.06876 51.9479C6.05347 51.5933 6.15456 51.3012 6.37202 51.0716C6.58209 50.8352 6.86442 50.7093 7.21902 50.694C7.57361 50.6787 7.86928 50.7797 8.10601 50.9968C8.33534 51.2072 8.45765 51.4897 8.47294 51.8443Z" fill="white"/>
<path d="M15.2776 32.7683C15.063 33.2086 14.7708 33.5084 14.401 33.6677C14.0279 33.8176 13.634 33.7914 13.2192 33.5893L13.647 33.5135L13.549 33.7145L14.4775 34.167L14.109 34.9231L7.12172 31.5178L7.49024 30.7616L8.99298 31.494L10.1369 32.0634L10.2255 31.8815L10.4434 32.2365C10.035 32.0374 9.77648 31.7416 9.66772 31.3491C9.55897 30.9565 9.61033 30.5433 9.8218 30.1094C10.0799 29.5797 10.4622 29.2409 10.9687 29.0929C11.4751 28.9449 12.0283 29.0171 12.6281 29.3094L14.1882 30.0698C14.7817 30.359 15.1761 30.7486 15.3716 31.2387C15.5671 31.7288 15.5357 32.2387 15.2776 32.7683ZM14.5005 32.6857C14.6871 32.3029 14.7184 31.947 14.5945 31.6181C14.4705 31.2892 14.1979 31.0221 13.7768 30.8168L12.2836 30.0891C11.8624 29.8839 11.4841 29.8337 11.1487 29.9387C10.8132 30.0437 10.5522 30.2877 10.3656 30.6705C10.1852 31.0406 10.1602 31.3917 10.2906 31.7237C10.4146 32.0526 10.684 32.3182 11.0987 32.5203L12.5919 33.248C13.0067 33.4502 13.385 33.5003 13.7268 33.3984C14.0623 33.2934 14.3202 33.0558 14.5005 32.6857Z" fill="white"/>
<path d="M20.1106 25.3146C19.7119 25.7863 19.2788 26.0568 18.8111 26.1262C18.338 26.1911 17.8955 26.0493 17.4835 25.7011C17.0769 25.3574 16.8693 24.9542 16.8608 24.4915C16.8468 24.0242 17.03 23.5656 17.4103 23.1156L18.6133 21.6926L18.1416 21.2939C17.8435 21.0419 17.5398 20.9338 17.2305 20.9698C16.9212 21.0058 16.6314 21.1838 16.361 21.5036C16.1227 21.7855 15.9857 22.074 15.95 22.3692C15.9189 22.6589 15.9976 22.9066 16.1861 23.1125L15.6362 23.763C15.2971 23.3834 15.142 22.9456 15.171 22.4496C15.2045 21.9481 15.416 21.467 15.8055 21.0062C16.2271 20.5074 16.6972 20.2262 17.2157 20.1626C17.7288 20.0944 18.213 20.2528 18.6684 20.6378L21.7341 23.2293L21.1979 23.8635L20.3278 23.128L20.2384 23.2337L20.2114 23.0018C20.5421 23.2813 20.6974 23.631 20.6771 24.0507C20.6569 24.4705 20.4681 24.8918 20.1106 25.3146ZM19.7208 24.7202C20.0233 24.3624 20.1813 23.9941 20.1949 23.6151C20.2084 23.2362 20.0716 22.9253 19.7842 22.6825L19.1093 22.1119L17.9132 23.5268C17.6979 23.7816 17.5965 24.0445 17.6091 24.3154C17.6217 24.5864 17.75 24.8249 17.994 25.0312C18.2542 25.2511 18.5408 25.3354 18.8538 25.284C19.1614 25.228 19.4504 25.0401 19.7208 24.7202Z" fill="white"/>
<path d="M27.5069 18.4231C27.1373 18.6874 26.7623 18.8464 26.382 18.9002C26.0016 18.954 25.6385 18.9039 25.2926 18.7497C24.9484 18.5857 24.6442 18.3189 24.38 17.9493L23.4139 16.5981C23.1497 16.2286 22.9976 15.8573 22.9579 15.4843C22.9197 15.1015 22.9876 14.7388 23.1616 14.3962C23.3355 14.0537 23.6073 13.7503 23.9768 13.4861C24.5196 13.098 25.0609 12.9335 25.6006 12.9927C26.1403 13.0518 26.5976 13.3313 26.9724 13.8312L26.2882 14.3205C26.0413 13.9996 25.7528 13.8219 25.4227 13.7874C25.0984 13.7488 24.763 13.8533 24.4165 14.101C24.0643 14.3529 23.8586 14.6571 23.7993 15.0136C23.7359 15.3643 23.8384 15.7273 24.1068 16.1027L25.0729 17.4539C25.3372 17.8234 25.6475 18.0378 26.004 18.0971C26.3606 18.1563 26.7149 18.06 27.0672 17.8082C27.4136 17.5604 27.621 17.2769 27.6894 16.9575C27.7593 16.6282 27.6845 16.2978 27.4649 15.9662L28.1491 15.4769C28.5009 15.9933 28.6175 16.5164 28.4989 17.0462C28.3803 17.5761 28.0497 18.035 27.5069 18.4231Z" fill="white"/>
<path d="M33.9193 14.5328L31.0909 7.29279L31.8744 6.9867L33.4668 11.0629L34.5876 10.6251L35.3091 7.70253L36.2216 7.34606L35.4019 10.6613L38.3824 12.7892L37.46 13.1496L34.8648 11.3056L33.7342 11.7473L34.7028 14.2267L33.9193 14.5328Z" fill="white"/>
<path d="M55.5398 11.4657C55.0537 11.405 54.6927 11.2312 54.4567 10.9442C54.2215 10.6502 54.1334 10.2672 54.1923 9.79529L54.6379 6.22403L52.9897 6.01835L53.0846 5.25761L54.7329 5.46329L54.9372 3.82558L55.7825 3.93106L55.5781 5.56877L57.9132 5.86015L57.8183 6.62089L55.4832 6.32951L55.0376 9.90077C54.9778 10.3798 55.1768 10.6478 55.6347 10.705L57.1773 10.8974L57.0824 11.6582L55.5398 11.4657Z" fill="white"/>
<path d="M64.2246 13.8472C63.8014 13.6818 63.4668 13.4558 63.2206 13.1691C62.9744 12.8824 62.8261 12.5501 62.7756 12.1722C62.7251 11.7943 62.7825 11.3937 62.9478 10.9706L63.5367 9.46308C63.7046 9.0333 63.9339 8.69992 64.2247 8.46293C64.518 8.21934 64.8523 8.07559 65.2276 8.03169C65.603 7.9878 66.0022 8.04851 66.4254 8.21383C66.8485 8.37914 67.1832 8.60515 67.4294 8.89185C67.6756 9.17855 67.8239 9.51086 67.8744 9.88878C67.9275 10.2601 67.8714 10.6573 67.7061 11.0805L67.1133 12.5979C66.9479 13.0211 66.7186 13.3545 66.4253 13.5981C66.132 13.8417 65.7977 13.9854 65.4223 14.0293C65.047 14.0732 64.6478 14.0125 64.2246 13.8472ZM64.4997 13.143C64.9096 13.3031 65.2722 13.3114 65.5874 13.1678C65.9026 13.0242 66.1468 12.7309 66.3198 12.2879L66.9088 10.7804C67.0818 10.3374 67.0979 9.95503 66.9569 9.6332C66.8225 9.31396 66.5536 9.07556 66.1503 8.91799C65.7469 8.76043 65.3844 8.75215 65.0626 8.89316C64.7473 9.03675 64.5032 9.33005 64.3301 9.77304L63.7412 11.2806C63.5681 11.7235 63.5488 12.1047 63.6832 12.4239C63.8242 12.7457 64.0964 12.9854 64.4997 13.143Z" fill="white"/>
<path d="M77.4388 25.0276L78.0243 24.5327L79.1722 25.8907C79.3876 26.1455 79.6053 26.2821 79.8254 26.3006C80.0501 26.3244 80.2844 26.2333 80.5283 26.027L81.0488 25.5871L81.9082 24.8885L81.7845 24.7421L82.1021 24.7385C81.766 25.0226 81.4037 25.1383 81.0152 25.0856C80.6268 25.0329 80.2744 24.8195 79.9582 24.4455C79.5733 23.9901 79.4176 23.5036 79.4912 22.9859C79.5703 22.4636 79.8619 21.9894 80.366 21.5632L81.3174 20.759C81.8216 20.3328 82.335 20.1265 82.8577 20.1401C83.3805 20.1537 83.8343 20.3881 84.2192 20.8435C84.5354 21.2176 84.6872 21.6005 84.6745 21.9923C84.6672 22.3796 84.4955 22.7153 84.1594 22.9994L84.2227 22.6949L84.3327 22.825L85.1621 22.1239L85.6983 22.7581L81.0714 26.6694C80.6594 27.0177 80.2364 27.1661 79.8025 27.1146C79.3678 27.0732 78.9625 26.8302 78.5867 26.3856L77.4388 25.0276ZM80.6774 24.1582C80.9478 24.4781 81.2562 24.6449 81.6026 24.6589C81.959 24.6736 82.3133 24.5321 82.6657 24.2342L83.5602 23.4781C83.9126 23.1802 84.1084 22.8566 84.1478 22.5073C84.1971 22.1588 84.0866 21.8247 83.8162 21.5048C83.5413 21.1796 83.2306 21.01 82.8842 20.9961C82.5378 20.9821 82.1857 21.1264 81.8279 21.4289L80.9335 22.185C80.5757 22.4875 80.3748 22.8106 80.3309 23.1545C80.2869 23.4984 80.4025 23.8329 80.6774 24.1582Z" fill="white"/>
<path d="M84.81 32.6152C84.5394 32.06 84.4667 31.5545 84.592 31.0986C84.7237 30.6396 85.032 30.292 85.5169 30.0556C85.9955 29.8224 86.4482 29.7952 86.875 29.9742C87.3081 30.15 87.6537 30.5027 87.9119 31.0324L88.7282 32.7074L89.2834 32.4368C89.6343 32.2658 89.8558 32.0315 89.9477 31.734C90.0396 31.4365 89.9938 31.0995 89.8103 30.7231C89.6486 30.3912 89.4399 30.1494 89.1843 29.9976C88.9318 29.8522 88.6734 29.8242 88.409 29.9136L88.0358 29.1478C88.5199 28.9908 88.9831 29.0257 89.4252 29.2524C89.8705 29.4855 90.2253 29.8733 90.4897 30.4157C90.7758 31.0027 90.8433 31.5463 90.6922 32.0464C90.5474 32.5433 90.207 32.9224 89.671 33.1836L86.0626 34.9423L85.6987 34.1957L86.7229 33.6966L86.6622 33.5721L86.8853 33.6411C86.4961 33.8308 86.1135 33.8317 85.7376 33.6437C85.3618 33.4558 85.0525 33.1129 84.81 32.6152ZM85.5112 32.4985C85.7164 32.9197 85.9896 33.2129 86.3308 33.3783C86.672 33.5437 87.0117 33.5439 87.3499 33.3791L88.1444 32.9919L87.3327 31.3265C87.1865 31.0266 86.9869 30.8277 86.7339 30.7299C86.481 30.6321 86.2109 30.6532 85.9237 30.7931C85.6175 30.9424 85.4247 31.1706 85.3453 31.4777C85.2724 31.7818 85.3277 32.122 85.5112 32.4985Z" fill="white"/>
<path d="M88.3833 42.8615C88.3153 42.5349 88.3186 42.2369 88.3931 41.9676C88.469 41.7053 88.6113 41.4835 88.8201 41.3023C89.0289 41.1211 89.2932 40.9972 89.6129 40.9307L94.9085 39.8285L94.5114 37.9209L95.262 37.7646L95.8304 40.4958L89.7843 41.7542C89.5271 41.8077 89.3401 41.9192 89.223 42.0885C89.113 42.2565 89.0833 42.462 89.1339 42.7053L89.5136 44.5296L88.763 44.6858L88.3833 42.8615Z" fill="white"/>
<path d="M88.9753 52.4946C88.9897 52.1613 89.0661 51.8733 89.2044 51.6306C89.3425 51.3949 89.535 51.2149 89.7819 51.0906C90.0288 50.9662 90.3154 50.9111 90.6416 50.9252L96.0457 51.1582L96.1297 49.2114L96.8956 49.2445L96.7754 52.0316L90.6054 51.7656C90.343 51.7543 90.1343 51.8163 89.9792 51.9517C89.8313 52.0874 89.752 52.2794 89.7412 52.5276L89.661 54.3893L88.895 54.3562L88.9753 52.4946Z" fill="white"/>
<path d="M87.3002 61.2129C87.4307 60.7777 87.6289 60.4259 87.8947 60.1573C88.1674 59.8907 88.49 59.717 88.8626 59.6361C89.2351 59.5551 89.6322 59.5779 90.0538 59.7043L91.6448 60.1815C92.0732 60.31 92.4172 60.5095 92.677 60.7801C92.9435 61.0527 93.1139 61.3743 93.188 61.7448C93.2689 62.1174 93.2442 62.5213 93.1136 62.9565C92.9831 63.3916 92.7816 63.7425 92.5089 64.009C92.2431 64.2776 91.9239 64.4524 91.5513 64.5333C91.1855 64.6163 90.7884 64.5935 90.3601 64.4651L89.3708 64.1683L90.4169 60.6803L89.8152 60.4998C89.3596 60.3632 88.9714 60.3727 88.6505 60.5285C88.3343 60.693 88.112 60.9895 87.9836 61.4178C87.8755 61.7782 87.8592 62.092 87.9347 62.3592C88.0081 62.6332 88.1717 62.8416 88.4253 62.9843L88.1836 63.7901C87.7369 63.5746 87.4347 63.2356 87.2769 62.7733C87.1191 62.311 87.1269 61.7908 87.3002 61.2129ZM90.1499 63.5349L90.5987 63.6695C91.0542 63.8062 91.4391 63.7956 91.7532 63.6378C92.0741 63.4821 92.2998 63.1867 92.4303 62.7515C92.5588 62.3232 92.5329 61.9523 92.3527 61.6388C92.1773 61.3342 91.8618 61.1136 91.4062 60.977L91.0493 60.8699L90.2172 63.6441L90.1499 63.5349Z" fill="white"/>
<path d="M84.5191 68.3819L89.5431 71.3912L89.1163 72.1037L88.1846 71.5456L88.0806 71.7192L87.6584 71.1187C88.1662 71.4312 88.4843 71.7913 88.6124 72.199C88.7466 72.6104 88.6769 73.0444 88.4034 73.5012C88.086 74.031 87.6669 74.3508 87.1459 74.4608C86.6274 74.5805 86.088 74.4725 85.5277 74.137L85.2263 73.9564L85.6695 73.2165L85.9161 73.3642C86.3241 73.6086 86.6979 73.696 87.0375 73.6264C87.3832 73.5604 87.6673 73.3416 87.8898 72.9702C88.105 72.6109 88.162 72.2602 88.0607 71.9182C87.9594 71.5762 87.7078 71.2848 87.3059 71.0441L84.0814 69.1127L84.5191 68.3819Z" fill="white"/>
<path d="M77.0854 75.4423L78.0885 77.6735L83.496 80.0289L82.8317 80.6898L79.2746 79.0769C79.1342 79.0163 78.9838 78.9407 78.8234 78.8499C78.663 78.7692 78.5326 78.6986 78.4324 78.6381C78.4874 78.7436 78.5598 78.8768 78.6497 79.0377C78.7397 79.1985 78.8171 79.3468 78.882 79.4825L80.5294 82.9803L79.8878 83.6186L76.4513 76.0731L77.0854 75.4423Z" fill="white"/>
<path d="M61.8403 90.0022C62.1808 89.902 62.491 89.9254 62.7711 90.0723C63.0463 90.2281 63.234 90.4763 63.3342 90.8167C63.4345 91.1572 63.4101 91.4641 63.2611 91.7373C63.1073 92.0194 62.8602 92.2105 62.5197 92.3107C62.1793 92.4109 61.8714 92.3832 61.5962 92.2274C61.3161 92.0804 61.126 91.8367 61.0258 91.4962C60.9255 91.1557 60.9523 90.8445 61.1061 90.5624C61.2551 90.2892 61.4998 90.1024 61.8403 90.0022Z" fill="white"/>
</g>
</svg>
