<svg width="100" height="100" viewBox="0 0 100 100" fill="none" xmlns="http://www.w3.org/2000/svg">
<rect width="100" height="100" fill="#0A0A0A"/>
<path d="M17.19 46V14.3579H24.2663V19.248H24.3814C24.4964 17.6372 25.0334 16.3331 25.9923 15.3359C26.9511 14.3004 28.1784 13.7826 29.6742 13.7826C31.055 13.7826 32.244 14.2812 33.2412 15.2784C34.2767 16.2372 34.9479 17.5029 35.2548 19.0754C35.3698 17.4646 35.926 16.1797 36.9232 15.2209C37.9204 14.262 39.1669 13.7826 40.6627 13.7826C42.542 13.7826 44.1146 14.5305 45.3802 16.0263C46.6843 17.5221 47.3363 19.459 47.3363 21.8369V46H39.9148V22.815C39.9148 20.974 39.1861 20.0535 37.7286 20.0535C36.3479 20.0535 35.6575 20.974 35.6575 22.815V46H28.8688V22.815C28.8688 20.974 28.1784 20.0535 26.7977 20.0535C25.3402 20.0535 24.6115 20.974 24.6115 22.815V46H17.19ZM53.2971 46V14.3579H61.6391V20.111C62.0993 18.1933 63.0773 16.6591 64.5732 15.5085C66.1073 14.3579 67.9675 13.7826 70.1537 13.7826C73.222 13.7826 75.6767 14.8565 77.5177 17.0043C79.397 19.1521 80.3367 22.0095 80.3367 25.5765V46H71.707V26.4394C71.707 24.7902 71.2659 23.5245 70.3838 22.6424C69.54 21.7219 68.351 21.2616 66.8169 21.2616C65.2827 21.2616 64.0745 21.7219 63.1924 22.6424C62.3486 23.5245 61.9267 24.7902 61.9267 26.4394V46H53.2971ZM18.8009 92.3556V50.3579H27.1429V56.111C27.8332 54.1166 28.9263 52.5632 30.4221 51.451C31.918 50.3387 33.7206 49.7826 35.8301 49.7826C37.8628 49.7826 39.6463 50.3195 41.1805 51.3934C42.7146 52.429 43.9036 53.8673 44.7474 55.7083C45.6295 57.5493 46.0706 59.6971 46.0706 62.1518V70.2061C46.0706 72.6224 45.6295 74.7703 44.7474 76.6496C43.9036 78.4906 42.7146 79.9481 41.1805 81.022C39.6463 82.0575 37.8628 82.5753 35.8301 82.5753C33.759 82.5753 31.9755 82.0384 30.4797 80.9644C28.9839 79.8522 27.8908 78.318 27.2004 76.362L27.4305 83.7259V92.3556H18.8009ZM32.4933 75.0963C34.0658 75.0963 35.2739 74.6552 36.1177 73.7731C36.9999 72.8526 37.4409 71.5677 37.4409 69.9185V62.4394C37.4409 60.7518 36.9999 59.467 36.1177 58.5848C35.2739 57.7027 34.0658 57.2616 32.4933 57.2616C30.844 57.2616 29.5784 57.741 28.6962 58.6999C27.8524 59.6204 27.4305 60.9628 27.4305 62.7271V69.6308C27.4305 71.3951 27.8524 72.7567 28.6962 73.7155C29.5784 74.636 30.844 75.0963 32.4933 75.0963ZM50.9958 82L61.9267 65.6036L51.7437 50.3579H61.3514L65.2635 56.6863C65.5704 57.1849 65.858 57.741 66.1265 58.3547C66.395 58.9684 66.6059 59.467 66.7593 59.8505C66.9128 59.467 67.1237 58.9684 67.3922 58.3547C67.6607 57.741 67.9483 57.1849 68.2551 56.6863L72.1673 50.3579H81.775L71.6495 65.6036L82.5229 82H72.9152L68.3127 74.521C68.0058 73.984 67.699 73.4279 67.3922 72.8526C67.1237 72.2389 66.9128 71.7403 66.7593 71.3567C66.6059 71.7403 66.395 72.2389 66.1265 72.8526C65.858 73.4279 65.5704 73.984 65.2635 74.521L60.6035 82H50.9958Z" fill="white"/>
</svg>
